<svg width="1440" height="1024" viewBox="0 0 1440 1024" fill="none" xmlns="http://www.w3.org/2000/svg">
<rect width="1440" height="1024" fill="#DC5800"/>
<path d="M68.6489 442.774C51.6928 492.104 53.2934 545.923 73.1512 594.158C93.009 642.393 129.763 681.739 176.535 704.833C223.307 727.926 276.892 733.185 327.261 719.625C377.631 706.065 421.333 674.615 450.189 631.16C479.046 587.706 491.078 535.226 484.036 483.541C476.994 431.855 451.359 384.508 411.928 350.358C372.498 316.208 321.975 297.597 269.814 298.007C217.653 298.417 167.428 317.82 128.54 352.586" stroke="white" stroke-width="10.928" stroke-miterlimit="22.926" stroke-linecap="round"/>
<path d="M271.423 549.12C291.756 549.12 308.239 532.637 308.239 512.303C308.239 491.97 291.756 475.487 271.423 475.487C251.09 475.487 234.607 491.97 234.607 512.303C234.607 532.637 251.09 549.12 271.423 549.12Z" stroke="white" stroke-width="10.928" stroke-miterlimit="22.926"/>
<path d="M427.071 512.708V513.112C427.037 546.451 416.304 578.9 396.451 605.684C376.597 632.468 348.673 652.173 316.784 661.901C284.895 671.628 250.726 670.865 219.304 659.723C187.881 648.581 160.864 627.648 142.227 600.004C123.59 572.36 114.317 539.465 115.772 506.157C117.227 472.85 129.333 440.888 150.309 414.975C171.286 389.061 200.025 370.564 232.3 362.204C264.574 353.845 298.679 356.064 329.599 368.535" stroke="white" stroke-width="10.928" stroke-miterlimit="22.926" stroke-linecap="round"/>
<path d="M116.995 513.118H157.494" stroke="white" stroke-width="10.928" stroke-miterlimit="22.926" stroke-linecap="round"/>
<path d="M271.188 626.228V666.727" stroke="white" stroke-width="10.928" stroke-miterlimit="22.926" stroke-linecap="round"/>
<path d="M384.615 512.992H425.115" stroke="white" stroke-width="10.928" stroke-miterlimit="22.926" stroke-linecap="round"/>
<path d="M271.188 359.066V399.559" stroke="white" stroke-width="10.928" stroke-miterlimit="22.926" stroke-linecap="round"/>
<path d="M338.636 444.075L319.9 492.825L307.48 525.101C305.55 530.338 302.526 535.104 298.61 539.081C294.693 543.058 289.974 546.155 284.766 548.164L252.687 561.065L204.227 580.533L222.963 531.783L235.366 499.507C237.296 494.27 240.32 489.504 244.237 485.527C248.153 481.55 252.873 478.453 258.08 476.444L290.176 463.543L338.636 444.075Z" stroke="white" stroke-width="10.928" stroke-linejoin="round"/>
<path d="M658.474 448.32L657.898 462.343C644.579 461.66 632.52 461.318 621.72 461.318C622.275 468.618 622.553 476.707 622.553 485.586C630.791 485.586 640.14 485.373 650.598 484.946V498.2C640.012 497.816 630.663 497.624 622.553 497.624C622.553 509.705 622.745 521.059 623.129 531.689H605.456C606.011 518.797 606.289 504.262 606.289 488.083C606.289 472.545 606.011 459.291 605.456 448.32H658.474ZM723.402 494.743C723.402 496.92 723.274 499.758 723.017 503.259L681.781 503.963C682.379 508.787 684.449 512.799 687.992 516.001C691.536 519.203 696.188 520.803 701.951 520.803C708.354 520.803 715.163 519.843 722.377 517.922L721.097 530.344C715.206 532.478 707.906 533.546 699.198 533.546C688.185 533.546 679.732 530.451 673.842 524.261C667.993 518.071 665.069 510.622 665.069 501.914C665.069 492.822 667.844 484.946 673.393 478.287C678.985 471.585 686.733 468.234 696.637 468.234C705.686 468.234 712.41 470.688 716.806 475.597C721.203 480.506 723.402 486.888 723.402 494.743ZM708.418 494.166C708.418 484.348 704.235 479.439 695.868 479.439C687.886 479.439 683.147 484.519 681.653 494.679L708.418 494.166ZM790.634 494.743C790.634 496.92 790.506 499.758 790.25 503.259L749.014 503.963C749.612 508.787 751.682 512.799 755.225 516.001C758.768 519.203 763.421 520.803 769.184 520.803C775.587 520.803 782.396 519.843 789.61 517.922L788.329 530.344C782.438 532.478 775.139 533.546 766.431 533.546C755.417 533.546 746.965 530.451 741.074 524.261C735.226 518.071 732.302 510.622 732.302 501.914C732.302 492.822 735.077 484.946 740.626 478.287C746.218 471.585 753.966 468.234 763.869 468.234C772.919 468.234 779.642 470.688 784.039 475.597C788.436 480.506 790.634 486.888 790.634 494.743ZM775.651 494.166C775.651 484.348 771.468 479.439 763.101 479.439C755.118 479.439 750.38 484.519 748.886 494.679L775.651 494.166ZM860.877 531.625L845.701 532.137C845.402 530.643 845.253 529.085 845.253 527.463H844.292C839.597 531.518 833.599 533.546 826.3 533.546C818.104 533.546 811.594 530.579 806.77 524.645C801.947 518.712 799.535 511.668 799.535 503.515C799.535 494.166 802.16 486.034 807.411 479.119C812.661 472.161 819.961 468.682 829.309 468.682C835.371 468.682 839.917 469.813 842.948 472.076H843.844C843.844 462.001 843.353 451.863 842.372 441.661L860.492 441.149C859.809 451.095 859.468 465.395 859.468 484.049C859.468 502.96 859.937 518.818 860.877 531.625ZM844.805 517.089C844.805 503.472 844.485 492.203 843.844 483.281C840.899 481.232 837.377 480.208 833.279 480.208C827.644 480.208 823.461 482.299 820.729 486.483C817.997 490.666 816.631 495.788 816.631 501.85C816.631 507.229 817.954 511.882 820.601 515.809C823.248 519.693 826.919 521.636 831.614 521.636C837.889 521.636 842.286 520.12 844.805 517.089ZM935.665 498.649C935.665 507.912 933.018 516.044 927.725 523.044C922.432 530.045 915.154 533.546 905.89 533.546C899.06 533.546 894.237 532.094 891.419 529.191H890.587L889.306 531.689H874.259C874.814 516.705 875.091 500.847 875.091 484.113C875.091 468.362 874.387 454.211 872.978 441.661L891.355 440.636C890.928 450.582 890.715 461.831 890.715 474.381H891.483C895.795 470.582 901.622 468.682 908.964 468.682C917.16 468.682 923.648 471.649 928.429 477.582C933.253 483.473 935.665 490.495 935.665 498.649ZM918.633 500.313C918.633 494.977 917.267 490.367 914.535 486.483C911.845 482.555 908.132 480.592 903.393 480.592C897.502 480.592 893.191 482.321 890.459 485.778C890.459 500.377 890.779 511.369 891.419 518.754C894.109 520.846 897.588 521.892 901.856 521.892C907.534 521.892 911.739 519.8 914.471 515.617C917.245 511.391 918.633 506.29 918.633 500.313ZM999.312 531.625L984.201 532.137C983.518 530.344 983.176 528.722 983.176 527.27H982.344C977.648 531.283 971.309 533.289 963.326 533.289C957.99 533.289 953.551 531.817 950.008 528.871C946.508 525.883 944.757 521.935 944.757 517.025C944.757 510.537 947.489 505.222 952.953 501.082C958.46 496.941 968.086 494.743 981.831 494.487C981.917 493.718 981.959 492.992 981.959 492.309C981.959 487.699 980.85 484.668 978.63 483.217C976.41 481.723 972.333 480.976 966.4 480.976C959.954 480.976 953.658 481.83 947.511 483.537L948.919 471.755C954.725 469.749 962.921 468.746 973.507 468.746C981.234 468.746 987.189 470.368 991.372 473.612C995.598 476.857 997.711 482.534 997.711 490.645C997.711 492.438 997.626 495.703 997.455 500.441C997.327 505.18 997.263 508.339 997.263 509.918C997.263 518.754 997.946 525.99 999.312 531.625ZM982.216 518.306C981.959 512.543 981.831 507.57 981.831 503.387C967.275 503.387 959.997 507.079 959.997 514.464C959.997 519.544 963.198 522.084 969.601 522.084C974.639 522.084 978.843 520.825 982.216 518.306ZM1060.08 518.242L1058.99 530.472C1055.1 532.521 1049.83 533.546 1043.17 533.546C1032.16 533.546 1023.69 530.472 1017.75 524.325C1011.86 518.178 1008.92 510.793 1008.92 502.17C1008.92 493.206 1012.01 485.394 1018.2 478.735C1024.39 472.033 1032.86 468.682 1043.62 468.682C1048.87 468.682 1053.55 469.28 1057.64 470.475L1055.47 483.537C1051.54 481.915 1047.14 481.104 1042.28 481.104C1037.11 481.104 1033.03 482.94 1030.05 486.611C1027.06 490.239 1025.56 494.721 1025.56 500.057C1025.56 505.863 1027.34 510.772 1030.88 514.784C1034.42 518.797 1039.44 520.803 1045.93 520.803C1049.73 520.803 1054.44 519.95 1060.08 518.242ZM1128.78 531.689H1109.19C1109.19 530.109 1105.95 524.773 1099.46 515.681C1092.97 506.546 1088.83 501.978 1087.03 501.978H1086.2C1086.2 510.729 1086.46 520.633 1086.97 531.689H1070C1070.51 511.754 1070.77 495.895 1070.77 484.113C1070.77 467.807 1070.11 453.656 1068.79 441.661L1086.97 440.636C1086.37 456.858 1086.07 471.35 1086.07 484.113C1086.07 485.736 1086.1 488.894 1086.14 493.59H1087.03C1088.23 493.59 1091.62 490.154 1097.22 483.281C1102.81 476.366 1105.6 472.225 1105.6 470.859H1124.68C1124.68 472.182 1121.78 475.875 1115.98 481.936C1110.17 487.998 1105.48 492.181 1101.89 494.487V495.447C1105.86 498.222 1111.32 504.539 1118.28 514.4C1125.28 524.218 1128.78 529.981 1128.78 531.689ZM1214.26 522.276C1214.26 530.942 1210.15 538.455 1201.91 544.815C1192.47 552.115 1179.37 556.255 1162.59 557.237L1160.86 546.544C1172.09 545.818 1180.97 543.534 1187.5 539.692C1194.29 535.765 1197.68 530.707 1197.68 524.517C1197.68 514.358 1188.16 509.278 1169.12 509.278L1170.47 498.969C1177.51 498.969 1183.25 497.773 1187.69 495.383C1192.17 492.95 1194.41 489.855 1194.41 486.098C1194.41 479.268 1189.08 475.853 1178.41 475.853C1173.63 475.853 1169.38 476.238 1165.66 477.006L1166.82 465.16C1169.81 464.093 1175.91 463.559 1185.13 463.559C1193.2 463.559 1199.41 465.203 1203.76 468.49C1207.78 471.606 1209.78 475.811 1209.78 481.104C1209.78 485.287 1208.27 489.129 1205.24 492.63C1202.46 495.831 1199.07 498.072 1195.06 499.353V500.313C1200.73 501.252 1205.34 503.707 1208.89 507.677C1212.47 511.647 1214.26 516.513 1214.26 522.276ZM1283.61 504.86C1283.61 512.671 1281.18 519.352 1276.31 524.901C1270.89 531.134 1263.7 534.25 1254.73 534.25C1246.71 534.25 1240.09 531.646 1234.88 526.438C1228.82 520.334 1225.79 511.455 1225.79 499.801C1225.79 465.182 1241.43 447.125 1272.72 445.631L1273.94 456.068C1254.52 458.16 1243.76 468.148 1241.67 486.034H1242.69C1246.24 481.68 1251.72 479.503 1259.15 479.503C1266.92 479.503 1273.05 482.107 1277.53 487.315C1281.58 492.011 1283.61 497.859 1283.61 504.86ZM1268.37 507.101C1268.37 502.448 1267.15 498.542 1264.72 495.383C1261.95 491.797 1258.08 490.004 1253.13 490.004C1248.35 490.004 1244.4 491.776 1241.29 495.319C1241.29 513.717 1245.94 522.916 1255.24 522.916C1259.3 522.916 1262.57 521.273 1265.04 517.986C1267.26 514.998 1268.37 511.369 1268.37 507.101ZM1353.72 497.816C1353.72 510.025 1351.16 519.16 1346.04 525.221C1340.92 531.24 1333.49 534.25 1323.76 534.25C1314.32 534.25 1307.19 531.603 1302.37 526.31C1297.59 520.974 1295.2 512.522 1295.2 500.954C1295.2 489.044 1297.78 479.695 1302.95 472.908C1308.16 466.121 1315.63 462.727 1325.36 462.727C1334.71 462.727 1341.77 465.758 1346.55 471.819C1351.33 477.838 1353.72 486.504 1353.72 497.816ZM1337.91 501.85C1337.91 494.038 1336.82 487.614 1334.64 482.577C1332.47 477.54 1328.88 475.021 1323.89 475.021C1315.43 475.021 1311.21 482.235 1311.21 496.664C1311.21 505.244 1312.3 511.604 1314.47 515.745C1316.69 519.843 1320.26 521.892 1325.17 521.892C1333.66 521.892 1337.91 515.211 1337.91 501.85Z" fill="white"/>
<path d="M542.607 665.339H1382.56" stroke="white" stroke-width="10.928" stroke-miterlimit="22.926"/>
<path d="M543.251 366.12H1382.56" stroke="white" stroke-width="10.928" stroke-miterlimit="22.926"/>
</svg>
