<?xml version="1.0" standalone="no"?>
<!DOCTYPE svg PUBLIC "-//W3C//DTD SVG 20010904//EN"
 "http://www.w3.org/TR/2001/REC-SVG-20010904/DTD/svg10.dtd">
<svg version="1.0" xmlns="http://www.w3.org/2000/svg"
 width="589.000000pt" height="602.000000pt" viewBox="0 0 589.000000 602.000000"
 preserveAspectRatio="xMidYMid meet">
<metadata>
Created by potrace 1.16, written by Peter Selinger 2001-2019
</metadata>
<g transform="translate(0.000000,602.000000) scale(0.100000,-0.100000)"
fill="#000000" stroke="none">
<path d="M960 6012 c0 -14 -74 -45 -78 -32 -5 15 -32 -7 -32 -26 0 -9 -12 -14
-36 -14 -27 0 -43 -7 -62 -27 -17 -19 -27 -23 -30 -15 -5 16 -32 -4 -32 -24 0
-8 -10 -14 -25 -14 -22 0 -25 -4 -25 -40 l0 -40 -40 0 c-29 0 -40 -4 -40 -15
0 -12 -15 -15 -78 -15 -104 0 -121 -12 -114 -80 l5 -50 -42 0 -41 0 0 -40 c0
-40 0 -40 -39 -40 -30 0 -41 -5 -46 -19 -7 -22 -38 -37 -43 -21 -5 15 -32 -7
-32 -26 0 -10 -12 -14 -39 -14 l-38 0 -7 -70 c-6 -60 -10 -70 -27 -70 -19 0
-19 -34 -19 -2660 l0 -2660 2945 0 2945 0 0 2715 0 2715 -25 0 c-24 0 -25 3
-25 55 l0 55 -40 0 c-38 0 -40 -2 -40 -30 0 -21 -5 -30 -16 -30 -9 0 -25 -9
-35 -21 -16 -19 -20 -20 -34 -6 -8 9 -15 31 -15 50 0 31 -4 36 -30 42 -16 4
-39 4 -50 0 -14 -5 -20 -2 -20 10 0 19 -39 35 -86 35 l-34 0 0 55 0 55 -59 0
c-51 0 -59 3 -64 21 -4 16 -11 20 -27 16 -28 -7 -60 24 -53 52 4 17 -1 23 -26
32 -17 6 -31 17 -31 25 0 8 -4 14 -10 14 -5 0 -10 7 -10 15 0 19 -40 35 -86
35 l-34 0 0 55 0 55 -1948 0 c-1502 0 -1951 -3 -1960 -12 -9 -9 -12 -9 -12 0
0 8 -24 12 -80 12 -44 0 -80 -4 -80 -8z m2160 -192 c142 -13 334 -44 430 -70
36 -10 88 -23 115 -30 66 -17 221 -67 263 -86 17 -8 49 -21 70 -30 20 -9 55
-24 77 -34 22 -10 60 -28 85 -39 103 -46 290 -155 298 -173 2 -5 10 -8 18 -8
8 0 14 -4 14 -10 0 -5 6 -10 13 -10 8 0 22 -9 33 -21 20 -23 74 -54 87 -51 4
1 7 -4 7 -12 0 -8 9 -18 20 -21 11 -3 20 -10 20 -15 0 -5 11 -15 24 -22 14 -7
47 -35 75 -61 28 -26 54 -48 58 -49 4 -1 22 -18 38 -38 40 -47 96 -100 106
-100 5 0 8 -4 7 -9 -2 -5 6 -17 17 -27 12 -11 32 -35 45 -54 14 -19 37 -46 52
-60 15 -13 28 -30 28 -37 0 -6 6 -16 14 -20 13 -8 54 -67 86 -122 8 -14 20
-30 26 -36 11 -9 94 -143 94 -150 0 -2 16 -31 35 -64 57 -101 151 -319 188
-436 65 -203 69 -220 92 -335 33 -165 43 -233 51 -335 14 -196 0 -495 -30
-642 -8 -37 -17 -90 -21 -118 -4 -27 -18 -86 -31 -130 -14 -44 -34 -111 -45
-150 -57 -193 -157 -415 -265 -585 -29 -47 -54 -89 -54 -95 0 -5 -16 -28 -36
-50 -19 -22 -42 -53 -51 -70 -9 -16 -21 -34 -28 -40 -15 -12 -104 -123 -125
-155 -8 -12 -21 -28 -28 -34 -7 -6 -43 -42 -80 -80 -37 -38 -73 -74 -81 -80
-7 -6 -27 -23 -43 -38 -16 -16 -33 -28 -38 -28 -5 0 -15 -8 -22 -19 -13 -18
-220 -177 -226 -173 -2 2 -17 -9 -51 -38 -9 -8 -37 -25 -61 -38 -25 -12 -76
-40 -115 -62 -38 -22 -87 -47 -107 -56 -21 -9 -38 -20 -38 -25 0 -5 -6 -9 -14
-9 -7 0 -44 -13 -82 -29 -97 -42 -319 -120 -384 -135 -154 -38 -347 -75 -445
-87 -153 -19 -490 -16 -635 4 -134 20 -343 61 -361 73 -7 4 -31 11 -54 15 -60
11 -247 79 -359 130 -83 38 -236 118 -273 143 -23 15 -47 29 -55 30 -28 6 -54
21 -80 45 -32 31 -40 38 -98 76 -25 16 -47 32 -50 35 -3 3 -21 17 -41 32 -20
15 -50 40 -65 55 -43 42 -110 93 -123 93 -6 0 -11 6 -11 14 0 7 -11 21 -23 29
-13 9 -39 32 -58 52 -71 78 -84 93 -99 111 -8 11 -33 42 -55 69 -23 28 -47 60
-55 72 -8 11 -36 49 -63 82 -26 34 -47 63 -47 66 0 2 -21 37 -47 77 -26 40
-71 120 -100 176 -30 57 -62 120 -73 140 -95 183 -191 516 -232 807 -20 140
-16 595 6 715 9 52 19 106 21 120 9 54 34 164 48 208 62 201 95 293 136 387
48 108 152 308 201 386 58 91 189 269 224 305 12 11 39 42 61 68 77 92 211
222 307 299 54 42 100 77 104 77 3 0 21 12 39 28 17 15 45 35 61 44 43 26 68
42 74 48 6 7 74 46 165 95 39 21 88 48 110 60 22 12 51 26 65 30 14 4 43 16
65 26 61 27 361 125 440 143 150 34 223 48 285 53 36 3 88 8 115 13 76 12 305
12 445 0z"/>
<path d="M2735 5449 c-133 -7 -306 -32 -338 -50 -10 -5 -22 -7 -28 -3 -5 3
-31 -1 -57 -10 -26 -8 -90 -29 -143 -45 -53 -16 -120 -41 -150 -55 -29 -14
-60 -26 -68 -26 -9 0 -27 -9 -41 -20 -14 -11 -30 -20 -37 -20 -11 0 -204 -104
-228 -123 -5 -4 -39 -26 -75 -50 -180 -116 -339 -261 -515 -472 -106 -126
-156 -196 -192 -265 -15 -30 -32 -58 -36 -61 -9 -7 -20 -26 -82 -149 -23 -47
-48 -103 -55 -125 -7 -22 -23 -63 -36 -91 -38 -85 -100 -326 -115 -449 -31
-267 -37 -489 -18 -660 14 -120 80 -396 115 -480 14 -33 30 -76 36 -95 10 -35
40 -104 104 -235 19 -39 34 -76 34 -83 0 -7 5 -12 11 -12 5 0 17 -16 25 -36
13 -31 92 -153 164 -253 14 -19 52 -63 84 -98 33 -35 65 -72 73 -82 24 -35 90
-100 96 -95 3 3 8 -4 12 -15 3 -11 14 -22 23 -25 10 -3 43 -30 75 -60 32 -30
82 -69 112 -86 29 -17 55 -34 57 -38 6 -14 168 -109 337 -198 14 -7 28 -11 33
-8 4 3 11 -2 14 -10 3 -9 12 -16 20 -16 7 0 28 -6 46 -14 18 -8 49 -21 70 -30
20 -9 42 -16 50 -16 8 0 19 -5 24 -10 10 -10 142 -51 174 -54 9 -1 20 -4 25
-8 13 -7 52 -16 101 -23 21 -3 46 -9 54 -12 34 -13 178 -24 384 -29 176 -5
243 -3 335 11 126 18 329 64 401 91 25 9 54 17 65 19 11 2 40 10 65 20 25 9
56 20 70 24 14 5 42 18 63 29 20 12 37 19 37 16 0 -3 10 2 22 10 12 9 28 16
35 16 8 0 30 11 51 24 20 14 60 38 89 53 92 50 183 107 183 115 0 4 14 15 31
24 100 51 393 320 464 425 16 24 33 46 36 49 15 12 79 101 95 132 9 18 20 35
24 38 14 10 82 123 121 203 110 220 192 450 224 622 7 39 18 97 24 130 6 33
14 137 18 231 15 422 -70 838 -243 1187 -72 144 -132 247 -150 254 -8 3 -14
10 -14 16 0 15 -83 137 -121 178 -18 19 -44 50 -58 69 -14 19 -47 55 -74 80
-147 140 -203 190 -214 190 -7 0 -13 5 -13 10 0 6 -8 14 -17 17 -10 4 -29 17
-43 30 -14 13 -44 33 -67 44 -23 11 -43 24 -45 29 -7 18 -130 91 -268 158
-149 72 -187 88 -300 124 -36 11 -81 26 -100 33 -68 25 -230 64 -293 71 -23 2
-76 8 -117 14 -106 13 -302 17 -455 9z m202 -255 c-3 -3 -12 -4 -19 -1 -8 3
-5 6 6 6 11 1 17 -2 13 -5z m403 -4 c0 -5 -9 -10 -19 -10 -35 0 -34 -21 1 -58
43 -45 86 -110 121 -179 22 -43 33 -54 69 -66 24 -9 35 -16 26 -16 -40 -2 -83
31 -107 83 -30 62 -91 153 -125 185 -40 36 -33 50 32 70 1 1 2 -3 2 -9z m-860
-9 c0 -5 -23 -11 -51 -15 -28 -4 -86 -18 -127 -31 -42 -13 -78 -23 -80 -21 -5
5 90 37 173 57 87 21 85 21 85 10z m88 -12 c2 -9 -5 -20 -15 -23 -14 -6 -16
-5 -5 5 20 21 14 28 -25 32 l-38 4 40 -1 c28 -1 41 -6 43 -17z m280 7 c-60
-16 -112 -56 -149 -114 -16 -25 -29 -41 -29 -35 0 5 11 27 25 47 13 20 21 36
17 36 -4 1 5 8 21 16 15 8 27 19 27 24 0 6 3 9 8 8 4 0 23 6 42 15 19 9 46 16
60 16 16 0 8 -5 -22 -13z m139 8 c-3 -3 -12 -4 -19 -1 -8 3 -5 6 6 6 11 1 17
-2 13 -5z m413 -10 c0 -2 -11 -4 -25 -4 -14 0 -25 4 -25 9 0 4 11 6 25 3 14
-2 25 -6 25 -8z m-350 -11 c37 -24 90 -75 102 -98 6 -11 -8 1 -30 26 -23 26
-61 56 -84 68 -24 11 -36 21 -28 21 9 0 27 -7 40 -17z m393 0 c-7 -2 -19 -2
-25 0 -7 3 -2 5 12 5 14 0 19 -2 13 -5z m67 -13 c11 -8 7 -9 -15 -4 -37 8 -45
14 -19 14 10 0 26 -5 34 -10z m47 -16 c-3 -3 -12 -4 -19 -1 -8 3 -5 6 6 6 11
1 17 -2 13 -5z m-1052 -50 c-19 -25 -35 -50 -35 -55 0 -5 -5 -9 -11 -9 -11 0
19 48 54 88 33 36 29 25 -8 -24z m1185 4 c10 -6 7 -7 -10 -2 -14 3 -32 11 -40
16 -10 6 -7 7 10 2 14 -3 32 -11 40 -16z m-1511 8 c-10 -9 -203 -86 -194 -77
11 10 174 80 189 81 5 0 7 -2 5 -4z m1561 -26 c8 -5 11 -10 5 -10 -5 0 -17 5
-25 10 -8 5 -10 10 -5 10 6 0 17 -5 25 -10z m72 -24 c9 0 15 -3 12 -7 -2 -4 5
-11 17 -14 11 -4 18 -9 16 -12 -3 -2 -27 7 -54 22 -26 14 -39 23 -28 19 11 -4
28 -7 37 -8z m-633 -46 c0 -10 -3 -8 -9 5 -12 27 -12 43 0 25 5 -8 9 -22 9
-30z m-1235 -9 c-74 -44 -144 -82 -144 -78 0 6 66 47 103 64 15 6 27 16 27 20
0 5 10 9 22 10 19 2 18 0 -8 -16z m497 -7 c-11 -15 -18 -31 -14 -37 3 -6 1 -7
-5 -3 -14 8 12 66 29 66 6 0 1 -12 -10 -26z m219 -49 c-7 -64 -7 -66 -8 -20
-2 45 7 101 13 93 1 -2 -1 -34 -5 -73z m325 50 c44 -43 21 -124 -40 -139 -32
-8 -90 16 -105 44 -42 79 80 160 145 95z m938 5 c10 -12 21 -19 25 -17 4 3 16
-5 27 -15 19 -19 18 -19 -22 1 -24 12 -43 26 -43 32 0 6 -4 8 -8 5 -4 -2 -14
-1 -22 5 -12 7 -11 9 5 9 11 0 28 -9 38 -20z m-743 -140 l-11 -25 6 25 c2 14
6 50 7 80 l2 55 3 -55 c2 -31 -1 -67 -7 -80z m-783 56 c-22 -24 -94 -53 -104
-42 -3 3 16 10 42 17 32 8 50 19 57 35 6 13 15 21 19 18 5 -3 -1 -16 -14 -28z
m1628 24 c4 -6 10 -8 15 -5 4 3 11 -2 14 -11 4 -9 9 -14 12 -11 4 3 13 -1 21
-9 8 -8 19 -11 25 -8 6 4 8 2 4 -4 -3 -6 3 -13 14 -17 11 -3 20 -12 20 -19 0
-15 -20 -36 -34 -36 -6 0 -3 5 7 11 9 5 17 14 17 19 0 5 -31 28 -70 51 -38 23
-70 43 -70 45 0 8 19 4 25 -6z m-2242 -29 c-30 -25 -83 -61 -83 -57 0 3 18 19
40 35 21 15 36 32 32 36 -4 5 -1 5 6 0 8 -4 10 -10 5 -14z m970 -178 c26 -24
51 -43 57 -43 6 0 9 -30 8 -77 l-2 -78 -3 73 c-3 56 -8 74 -20 79 -42 16 -133
136 -133 175 0 7 11 -9 24 -37 12 -27 44 -69 69 -92z m900 104 c26 -11 45 -22
43 -25 -3 -2 -13 -1 -23 3 -10 5 -21 7 -25 7 -5 -1 -8 3 -8 8 0 6 -3 9 -7 8
-5 -1 -24 6 -43 15 -48 23 0 11 63 -16z m-1453 -4 c-138 -65 -160 -76 -189
-97 -17 -13 -27 -27 -23 -31 4 -5 1 -5 -6 -1 -7 4 -28 -1 -47 -13 -20 -12 -37
-16 -40 -10 -4 5 -11 6 -17 3 -6 -4 -8 -2 -4 4 7 12 -91 115 -104 107 -4 -2
-13 2 -20 10 -7 8 -15 13 -19 11 -3 -2 -12 2 -19 10 -20 22 -2 16 55 -16 28
-16 70 -52 93 -79 l42 -50 37 24 c74 49 147 90 221 122 89 39 119 44 40 6z
m952 -41 c-12 -16 -41 -46 -65 -68 -24 -22 -46 -46 -50 -54 -4 -11 -6 -9 -6 5
0 12 15 31 39 47 22 16 52 45 68 67 15 21 29 37 31 35 2 -1 -6 -16 -17 -32z
m938 13 c-7 -9 -15 -13 -17 -11 -7 7 7 26 19 26 6 0 6 -6 -2 -15z m-335 -15
c3 -5 2 -10 -4 -10 -5 0 -13 5 -16 10 -3 6 -2 10 4 10 5 0 13 -4 16 -10z m294
-6 c-43 -52 -103 -104 -119 -104 -11 0 -20 3 -20 8 0 4 -27 22 -60 40 -33 19
-60 36 -60 39 0 4 82 -40 132 -71 15 -9 27 -1 75 47 56 55 80 74 52 41z m448
-183 c25 -17 43 -31 38 -31 -5 0 4 -13 20 -30 16 -16 25 -30 21 -30 -5 0 -27
21 -49 46 -52 59 -123 93 -197 95 -53 2 -54 2 -15 8 48 8 113 -13 182 -58z
m-3052 38 c-29 -11 -32 -11 -32 4 0 9 9 12 26 9 23 -5 24 -6 6 -13z m162 9
c78 -34 167 -123 187 -186 13 -40 -9 -23 -27 21 -22 54 -82 117 -133 142 -22
10 -68 22 -104 25 l-65 7 57 2 c31 0 70 -4 85 -11z m2629 -14 c-21 -8 -46 -20
-54 -26 -13 -11 -14 -11 -8 0 10 16 64 41 86 41 8 0 -3 -7 -24 -15z m-2850
-17 c-11 -7 -35 -25 -54 -42 -24 -21 -31 -24 -23 -10 14 22 70 64 86 64 6 0 1
-6 -9 -12z m2774 -20 c0 -2 -10 -12 -22 -23 l-23 -19 19 23 c18 21 26 27 26
19z m-59 -75 c-11 -16 -23 -40 -26 -55 -4 -15 -11 -27 -15 -27 -12 0 14 67 35
90 26 29 30 25 6 -8z m-2811 -2 c-6 -11 -13 -20 -16 -20 -2 0 0 9 6 20 6 11
13 20 16 20 2 0 0 -9 -6 -20z m-27 -58 c-3 -12 -9 -22 -14 -22 -5 0 -3 11 3
25 13 30 20 28 11 -3z m3337 14 c0 -3 -4 -8 -10 -11 -5 -3 -10 -1 -10 4 0 6 5
11 10 11 6 0 10 -2 10 -4z m-3026 -28 c15 -13 29 -37 32 -55 5 -27 1 -37 -24
-63 -61 -60 -152 -29 -152 52 0 77 87 116 144 66z m2801 16 c21 -8 45 -56 45
-89 0 -40 -41 -75 -88 -75 -50 0 -81 25 -88 71 -11 68 61 119 131 93z m225
-127 c-13 -65 -69 -156 -110 -181 -43 -25 -49 -19 -9 8 73 50 129 176 115 259
l-5 32 10 -31 c8 -22 8 -47 -1 -87z m-2797 41 c3 -27 1 -46 -4 -42 -5 3 -9 26
-9 51 0 58 7 53 13 -9z m2254 30 c-3 -8 -6 -5 -6 6 -1 11 2 17 5 13 3 -3 4
-12 1 -19z m-2810 -50 c-2 -13 -4 -3 -4 22 0 25 2 35 4 23 2 -13 2 -33 0 -45z
m1790 -10 c-3 -7 -5 -2 -5 12 0 14 2 19 5 13 2 -7 2 -19 0 -25z m-220 -20 c-3
-8 -6 -5 -6 6 -1 11 2 17 5 13 3 -3 4 -12 1 -19z m1193 -18 c-69 -61 -131
-103 -124 -86 3 9 11 16 16 16 13 0 128 92 128 103 0 4 6 7 13 7 6 -1 -8 -19
-33 -40z m-2753 -2 c-3 -8 -6 -5 -6 6 -1 11 2 17 5 13 3 -3 4 -12 1 -19z m585
14 c2 -5 33 -32 71 -61 37 -29 67 -55 67 -57 0 -3 -36 23 -80 56 -44 33 -80
63 -80 65 0 8 18 5 22 -3z m975 -27 c0 -8 -4 -12 -9 -9 -5 3 -6 10 -3 15 9 13
12 11 12 -6z m-1537 -35 c16 -38 80 -97 134 -121 55 -25 141 -25 202 1 67 29
79 19 13 -10 -104 -48 -221 -24 -309 63 -37 36 -75 97 -61 97 5 0 14 -13 21
-30z m1800 14 c0 -2 -11 -4 -25 -4 -14 0 -25 4 -25 9 0 4 11 6 25 3 14 -2 25
-6 25 -8z m-335 -4 c-3 -5 -16 -10 -28 -9 -20 1 -20 2 3 9 14 4 26 8 28 9 2 1
0 -3 -3 -9z m48 3 c-7 -2 -19 -2 -25 0 -7 3 -2 5 12 5 14 0 19 -2 13 -5z m334
-9 c-3 -3 -12 -4 -19 -1 -8 3 -5 6 6 6 11 1 17 -2 13 -5z m-452 -14 c-11 -5
-27 -9 -35 -9 -9 0 -8 4 5 9 11 5 27 9 35 9 9 0 8 -4 -5 -9z m492 4 c-3 -3
-12 -4 -19 -1 -8 3 -5 6 6 6 11 1 17 -2 13 -5z m40 -10 c-3 -3 -12 -4 -19 -1
-8 3 -5 6 6 6 11 1 17 -2 13 -5z m79 -24 c15 -6 25 -13 22 -15 -7 -7 -88 27
-88 37 0 5 9 4 19 -2 11 -5 32 -15 47 -20z m-716 -4 c-30 -12 -71 -31 -90 -40
-27 -14 -32 -15 -20 -3 17 18 128 66 150 66 8 0 -10 -10 -40 -23z m-1525 -53
c-48 -62 -48 -62 -43 -38 3 18 69 96 76 90 2 -2 -13 -25 -33 -52z m93 22 c10
0 142 -134 142 -145 0 -4 -7 -13 -15 -20 -8 -7 -12 -16 -9 -21 3 -5 0 -9 -6
-9 -6 0 -9 -4 -6 -8 3 -5 -1 -9 -9 -9 -9 0 -6 11 11 36 l25 36 -80 75 c-45 41
-81 80 -81 85 0 6 5 3 10 -5 5 -8 13 -15 18 -15z m2727 16 c-16 -14 -266 -201
-269 -201 -2 0 -6 6 -9 14 -4 10 0 12 14 9 10 -3 19 -1 19 4 0 5 15 17 33 27
35 21 130 97 135 109 2 4 9 7 15 7 7 0 23 9 37 20 25 20 42 27 25 11z m926 -8
c11 -15 11 -16 -1 -5 -21 19 -33 15 -78 -24 -23 -19 -42 -32 -42 -27 0 4 -5 1
-10 -7 -5 -8 -10 -10 -10 -4 0 6 7 17 15 24 8 7 15 9 15 5 0 -4 14 7 32 24 36
35 59 39 79 14z m-2690 -71 c15 -9 32 -25 39 -35 6 -10 -25 9 -69 44 -45 34
-81 64 -81 66 0 3 19 -10 43 -27 23 -18 54 -40 68 -48z m1284 48 c20 -11 46
-27 59 -35 12 -8 25 -13 28 -10 2 3 5 -1 5 -8 0 -12 -50 13 -127 62 -28 18 -1
11 35 -9z m815 -17 c13 -10 45 -23 70 -29 26 -7 35 -13 22 -13 -12 -1 -39 6
-60 15 -63 27 -76 26 -107 -6 -16 -17 -34 -30 -39 -30 -10 0 73 79 84 80 3 0
17 -8 30 -17z m646 -48 c14 -28 14 -29 -1 -10 -9 11 -23 34 -31 50 -14 28 -14
29 1 10 9 -11 23 -33 31 -50z m-2406 50 c0 -2 -10 -9 -22 -15 -22 -11 -22 -10
-4 4 21 17 26 19 26 11z m-521 -177 c84 -65 161 -122 169 -127 14 -8 14 -12 3
-25 -8 -9 -31 -49 -52 -89 -21 -39 -39 -69 -39 -64 0 4 17 40 37 80 20 39 37
77 38 82 0 9 -113 102 -132 108 -4 1 -16 11 -28 22 -11 11 -67 56 -123 99 -56
44 -102 81 -102 84 0 5 18 -8 229 -170z m2496 147 c-16 -8 -46 -14 -65 -13
-30 0 -29 1 13 8 27 5 52 11 55 14 3 3 10 6 16 5 6 0 -2 -7 -19 -14z m-2045
-9 c0 -7 -127 -106 -136 -106 -5 0 -25 14 -44 31 -26 23 -29 27 -10 18 13 -7
31 -18 38 -26 15 -15 32 -17 32 -5 0 5 12 14 26 20 15 7 22 17 18 24 -4 6 -3
8 3 5 5 -3 22 5 39 18 30 25 34 28 34 21z m1138 -14 c-2 -4 13 -23 32 -41 l35
-33 -42 33 c-23 17 -40 36 -37 40 7 11 15 12 12 1z m1132 5 c0 -2 -14 -16 -32
-33 -18 -16 -26 -20 -18 -9 19 25 50 52 50 42z m-3684 -89 c-24 -46 -54 -109
-67 -140 -12 -32 -25 -56 -27 -53 -3 3 5 29 18 58 41 93 49 112 48 121 0 5 4
12 9 15 5 3 19 23 32 44 40 65 33 40 -13 -45z m3126 58 c7 4 8 2 4 -5 -4 -6
-12 -8 -18 -5 -6 4 -13 3 -17 -2 -9 -13 -121 -96 -121 -90 0 11 135 114 138
105 2 -5 9 -6 14 -3z m833 -94 c20 -41 35 -75 33 -77 -2 -3 -23 35 -47 83 -23
48 -38 83 -33 77 6 -5 27 -43 47 -83z m-2015 62 c-38 -8 -90 -9 -90 -2 0 4 24
7 53 7 28 -1 45 -3 37 -5z m123 -1 c-13 -2 -35 -2 -50 0 -16 2 -5 4 22 4 28 0
40 -2 28 -4z m-288 -23 c-77 -20 -125 -39 -125 -51 0 -4 -12 -10 -27 -14 -58
-14 -222 -159 -282 -247 -39 -59 -82 -149 -75 -160 3 -4 1 -8 -4 -8 -4 0 -15
-23 -22 -51 -8 -28 -16 -46 -18 -40 -5 16 26 107 66 186 87 176 261 324 452
386 30 10 66 18 80 18 14 0 -6 -8 -45 -19z m461 -19 c40 -16 104 -49 142 -75
78 -51 206 -182 195 -199 -4 -6 -9 -3 -14 9 -10 27 -118 144 -133 144 -6 0
-19 9 -29 20 -9 11 -23 20 -30 20 -8 0 -22 9 -32 20 -17 18 -95 52 -200 85
-47 14 -47 15 -10 9 22 -3 72 -18 111 -33z m1426 -19 c16 -25 17 -31 4 -26 -8
3 -18 16 -22 27 -4 12 -12 26 -18 30 -8 6 -7 7 2 5 7 -2 22 -18 34 -36z m-707
-22 c-4 -6 -32 -29 -63 -52 -92 -68 -92 -68 -79 -92 7 -12 16 -24 21 -27 5 -4
7 -12 4 -19 -4 -12 -49 52 -47 68 0 6 159 131 167 132 2 0 0 -5 -3 -10z
m-2708 -28 c-10 -10 -14 -22 -10 -25 3 -4 1 -7 -6 -7 -7 0 -9 -4 -6 -10 3 -5
2 -10 -2 -10 -5 0 -16 -19 -26 -41 -10 -23 -20 -39 -23 -36 -3 3 7 29 22 59
35 69 55 100 62 93 3 -3 -2 -13 -11 -23z m3482 -69 c50 -101 122 -328 94 -298
-6 6 -16 37 -23 70 -7 33 -16 65 -20 70 -4 6 -10 24 -14 40 -4 17 -25 67 -46
113 -21 45 -37 82 -34 82 2 0 21 -35 43 -77z m316 -104 c19 -54 31 -99 27 -99
-4 0 -22 46 -40 103 -18 56 -35 109 -38 117 -3 8 0 7 6 -3 7 -10 27 -63 45
-118z m-1942 64 c96 -31 231 -129 257 -187 3 -6 21 -36 41 -66 43 -65 50 -93
56 -225 4 -97 -18 -245 -36 -245 -4 0 -18 -19 -31 -41 -42 -76 -147 -168 -230
-202 -115 -48 -258 -51 -365 -8 -116 47 -201 115 -260 207 -47 73 -65 132 -72
238 -5 77 -2 103 17 166 32 107 80 192 142 250 52 50 158 110 194 110 11 0 26
5 34 10 25 16 196 12 253 -7z m-2218 -59 l-15 -39 6 35 c7 38 14 54 20 47 2
-2 -3 -21 -11 -43z m267 -30 c-11 -27 -27 -84 -37 -127 -9 -43 -20 -76 -23
-73 -2 3 3 38 13 78 20 82 55 182 61 175 3 -2 -4 -26 -14 -53z m2716 -29 c-3
-3 -9 2 -12 12 -6 14 -5 15 5 6 7 -7 10 -15 7 -18z m-242 -47 c14 -28 15 -31
2 -20 -14 11 -31 52 -22 52 2 0 11 -15 20 -32z m264 -3 c0 -5 -5 -3 -10 5 -5
8 -10 20 -10 25 0 6 5 3 10 -5 5 -8 10 -19 10 -25z m-3033 3 c-3 -8 -6 -5 -6
6 -1 11 2 17 5 13 3 -3 4 -12 1 -19z m1174 -25 c-12 -20 -14 -14 -5 12 4 9 9
14 11 11 3 -2 0 -13 -6 -23z m3057 -48 c0 -16 -2 -15 -8 5 -4 14 -8 34 -8 45
0 16 2 15 8 -5 4 -14 8 -34 8 -45z m-1163 -31 c4 -25 3 -24 -8 6 -8 19 -17 46
-20 60 -5 19 -3 17 8 -6 7 -17 16 -44 20 -60z m-3078 54 c-3 -8 -6 -5 -6 6 -1
11 2 17 5 13 3 -3 4 -12 1 -19z m2813 -23 c0 -5 -5 -3 -10 5 -5 8 -10 20 -10
25 0 6 5 3 10 -5 5 -8 10 -19 10 -25z m-2827 -75 c-6 -76 -5 -80 13 -74 15 5
16 4 4 -4 -27 -19 -37 3 -29 65 4 32 8 66 8 76 1 9 3 17 6 17 2 0 2 -36 -2
-80z m2861 -26 c22 -85 18 -104 -4 -24 -30 107 -33 117 -22 100 6 -8 17 -43
26 -76z m-1700 27 c-4 -17 -9 -30 -11 -27 -3 2 -2 19 2 36 9 41 17 33 9 -9z
m2889 -19 l42 -11 -40 5 c-52 7 -55 10 -54 42 l2 27 4 -26 c3 -21 12 -28 46
-37z m214 26 c-3 -7 -5 -2 -5 12 0 14 2 19 5 13 2 -7 2 -19 0 -25z m-4007 -16
c0 -10 -67 -32 -115 -39 -16 -2 -42 -9 -57 -14 -15 -6 -33 -9 -40 -7 -7 3 19
13 57 22 58 15 142 40 153 45 1 0 2 -3 2 -7z m2847 -14 c-3 -8 -6 -5 -6 6 -1
11 2 17 5 13 3 -3 4 -12 1 -19z m1173 -24 l0 -37 -42 7 c-22 4 -48 11 -57 17
-14 9 -14 10 1 5 9 -3 33 -8 52 -12 35 -6 36 -5 36 25 0 17 2 31 5 31 3 0 5
-16 5 -36z m-135 6 c13 -5 14 -9 5 -9 -8 0 -24 4 -35 9 -13 5 -14 9 -5 9 8 0
24 -4 35 -9z m-3003 -138 c-2 -73 -7 -131 -10 -128 -6 7 -3 168 4 224 4 24 7
42 9 40 1 -2 0 -63 -3 -136z m1975 106 c-3 -7 -5 -2 -5 12 0 14 2 19 5 13 2
-7 2 -19 0 -25z m-1724 -38 c-7 -28 -13 -25 -13 6 0 14 4 23 9 20 5 -3 7 -15
4 -26z m1734 -27 c-3 -10 -5 -2 -5 17 0 19 2 27 5 18 2 -10 2 -26 0 -35z
m-1750 -155 c-2 -29 -3 -6 -3 52 0 58 1 81 3 53 2 -29 2 -77 0 -105z m1511 -3
c-5 -124 -29 -219 -79 -317 -31 -61 -34 -38 -3 28 57 124 74 200 75 340 1 60
4 100 6 89 3 -11 3 -74 1 -140z m-2465 118 c-13 -2 -33 -2 -45 0 -13 2 -3 4
22 4 25 0 35 -2 23 -4z m2718 -61 c1 -34 -1 -65 -4 -69 -4 -3 -7 27 -7 67 0
88 8 90 11 2z m809 52 l25 -15 -25 8 c-14 4 -58 8 -98 8 -40 0 -64 3 -55 7 33
12 127 8 153 -8z m-3620 -1 c-8 -3 -27 -12 -42 -20 -16 -7 -28 -11 -28 -9 0 9
54 35 70 35 13 -1 13 -1 0 -6z m3440 -7 c0 -2 -7 -7 -16 -10 -8 -3 -12 -2 -9
4 6 10 25 14 25 6z m-3235 -16 c3 -6 -1 -7 -9 -4 -18 7 -21 14 -7 14 6 0 13
-4 16 -10z m3491 -7 c-2 -3 10 -18 27 -34 26 -25 23 -23 -18 7 -27 20 -51 37
-53 39 -1 1 9 0 23 -3 14 -2 24 -7 21 -9z m-3813 -46 c-56 -60 -76 -118 -71
-205 1 -38 0 -68 -4 -65 -5 2 -8 38 -8 78 0 87 24 149 80 205 49 50 51 40 3
-13z m3487 24 c-19 -16 -39 -26 -44 -23 -5 3 -1 9 10 13 11 4 26 14 33 23 7 9
18 16 24 16 6 0 -4 -13 -23 -29z m-3105 -16 c35 -36 31 -45 -5 -10 -16 16 -30
30 -30 32 0 8 11 1 35 -22z m3065 -29 c0 -2 -6 -9 -14 -15 -11 -9 -16 -9 -22
0 -4 8 -3 9 4 5 7 -4 12 -2 12 3 0 6 5 11 10 11 6 0 10 -2 10 -4z m450 -12 c0
-8 -19 -13 -24 -6 -3 5 1 9 9 9 8 0 15 -2 15 -3z m28 -164 c-3 -37 -10 -75
-17 -86 -9 -16 -10 -14 -4 11 10 39 10 143 0 175 -7 22 -6 21 9 -4 12 -22 15
-46 12 -96z m-3678 75 c35 -35 33 -90 -4 -121 -47 -41 -113 -29 -141 27 -17
33 -13 62 14 93 36 42 88 42 131 1z m3450 20 c58 -30 67 -90 21 -136 -39 -38
-88 -40 -125 -3 -15 16 -26 38 -26 54 0 42 50 96 93 99 4 1 21 -6 37 -14z
m-2523 -37 c-3 -7 -5 -2 -5 12 0 14 2 19 5 13 2 -7 2 -19 0 -25z m31 -98 c0
-8 -6 1 -13 20 -7 19 -13 42 -13 50 0 8 6 -1 13 -20 7 -19 13 -42 13 -50z
m-223 -85 c12 -33 34 -84 49 -112 19 -39 23 -54 13 -59 -6 -4 -9 -4 -5 1 4 4
-9 39 -29 79 -20 39 -38 79 -40 89 -2 10 -8 27 -13 38 -10 18 -24 19 -260 19
l-248 0 -23 -37 c-58 -98 -126 -144 -219 -150 -50 -4 -78 0 -120 16 -54 21
-120 69 -120 89 0 5 -7 15 -15 22 -8 7 -15 19 -15 27 0 9 15 -7 33 -33 44 -66
134 -114 215 -114 100 1 182 51 228 143 l25 47 260 -2 261 -3 23 -60z m253 23
c12 -21 18 -38 14 -38 -8 0 -42 63 -42 77 0 8 2 5 28 -39z m2165 35 c3 -5
-111 -7 -253 -5 l-258 3 -12 -38 c-14 -43 -37 -74 -25 -33 4 14 14 37 22 53
l14 27 254 0 c139 0 256 -3 258 -7z m17 -32 c0 -22 89 -106 135 -127 111 -52
251 -11 328 96 17 24 17 24 0 -10 -10 -19 -21 -37 -26 -38 -4 -2 -4 -9 0 -15
3 -7 3 -9 -2 -5 -4 4 -32 -7 -62 -24 -105 -59 -224 -48 -309 30 -41 38 -89
102 -75 102 6 0 11 -4 11 -9z m-2152 -76 c-3 -3 -9 2 -12 12 -6 14 -5 15 5 6
7 -7 10 -15 7 -18z m1581 -16 c-8 -5 -10 -9 -5 -9 5 0 2 -8 -6 -17 -8 -10 -25
-38 -36 -63 -12 -25 -33 -58 -47 -75 -20 -24 -19 -19 8 25 17 31 43 79 56 108
13 28 28 49 34 45 5 -3 3 -9 -4 -14z m-1520 -66 c13 -13 19 -23 13 -23 -11 0
-52 50 -66 80 -4 8 1 4 11 -10 10 -14 29 -35 42 -47z m1203 0 c-11 -16 -33
-39 -48 -53 -15 -14 -8 -1 17 27 48 58 62 69 31 26z m-1405 -130 c18 -24 30
-43 25 -43 -4 0 -16 14 -27 30 -11 16 -23 30 -27 30 -5 0 -8 6 -8 14 0 7 -7
19 -15 26 -8 7 -15 18 -14 24 0 6 8 0 17 -14 9 -13 32 -44 49 -67z m264 56
c17 -17 29 -32 27 -35 -2 -2 -20 12 -38 31 -42 43 -33 47 11 4z m1034 -39
c-16 -16 -31 -28 -33 -25 -4 4 48 54 57 55 3 0 -8 -13 -24 -30z m-964 -20 c5
0 22 -12 37 -26 30 -30 14 -23 -35 14 -18 13 -33 29 -33 36 0 6 5 3 11 -6 5
-10 14 -18 20 -18z m-1659 1 c-12 -7 -11 -22 3 -89 9 -44 27 -115 40 -158 13
-43 22 -80 20 -82 -6 -6 -63 179 -75 247 -12 67 -9 91 12 91 10 0 10 -2 0 -9z
m4262 1 c2 -4 -6 -7 -17 -7 -12 -1 -33 -5 -47 -9 -23 -7 -23 -7 -7 6 20 15 64
22 71 10z m-4184 -24 c10 -6 7 -7 -10 -2 -14 3 -32 11 -40 16 -10 6 -7 7 10 2
14 -3 32 -11 40 -16z m2830 -5 c-63 -81 -151 -158 -235 -207 -30 -17 -30 -17
-5 1 92 68 173 138 210 182 45 54 67 71 30 24z m-350 -4 c-28 -24 -122 -73
-160 -84 l-25 -7 23 17 c13 9 29 18 35 19 30 6 57 18 57 27 0 6 4 8 9 5 5 -4
11 -3 13 1 3 8 57 41 68 42 3 0 -6 -9 -20 -20z m-2400 -14 l45 -15 -40 6 c-22
3 -47 10 -55 15 -23 13 0 10 50 -6z m771 6 c-43 -6 -58 -13 -77 -36 -13 -17
-24 -37 -24 -45 0 -8 -5 -22 -10 -30 -7 -11 -8 -5 -3 20 3 19 11 38 17 42 6 4
7 8 2 8 -6 0 5 11 24 25 26 19 45 25 79 24 l46 -2 -54 -6z m2422 2 c3 -5 -17
-6 -44 -5 -45 4 -52 1 -84 -31 -30 -30 -35 -42 -35 -82 0 -40 5 -52 34 -81 29
-29 41 -34 79 -34 48 0 91 25 102 60 4 11 11 20 17 20 6 0 6 -6 -2 -15 -7 -8
-10 -15 -6 -15 9 0 -30 -37 -52 -49 -36 -19 -110 -16 -133 5 -54 49 -66 133
-24 182 13 16 21 33 17 37 -4 5 -2 5 5 1 6 -3 14 -2 18 4 7 12 101 14 108 3z
m757 -8 c-19 -7 -44 -13 -55 -13 -11 0 -2 5 20 13 53 17 80 17 35 0z m147 -17
c-3 -7 -5 -2 -5 12 0 14 2 19 5 13 2 -7 2 -19 0 -25z m-3223 -9 c14 -17 26
-38 26 -47 -1 -9 -7 -3 -14 14 -8 17 -24 39 -37 48 -13 9 -18 16 -12 16 6 0
23 -14 37 -31z m480 -128 c-2 -3 -15 6 -29 19 -13 14 -44 44 -69 68 -25 24
-49 48 -53 55 -4 7 30 -22 74 -63 45 -41 80 -76 77 -79z m256 123 c0 -2 -9 0
-20 6 -11 6 -20 13 -20 16 0 2 9 0 20 -6 11 -6 20 -13 20 -16z m-1506 0 c3 -9
6 -23 5 -32 -1 -10 -4 -7 -8 8 -4 14 -17 27 -31 31 l-25 7 26 1 c16 1 29 -5
33 -15z m3154 -21 c1 -15 1 -25 -1 -22 -2 2 -10 16 -20 30 -15 25 -15 27 1 22
10 -2 19 -15 20 -30z m597 28 c-12 -5 -26 -28 -36 -62 -13 -40 -17 -46 -16
-24 0 17 5 36 10 43 5 6 6 12 2 12 -5 0 0 9 10 20 10 11 25 20 34 19 12 0 11
-2 -4 -8z m232 -33 c-3 -8 -6 -5 -6 6 -1 11 2 17 5 13 3 -3 4 -12 1 -19z
m-2417 2 c8 -5 11 -10 5 -10 -5 0 -17 5 -25 10 -8 5 -10 10 -5 10 6 0 17 -5
25 -10z m505 -36 c-40 -12 -92 -18 -84 -10 2 3 16 7 29 10 14 2 36 9 50 14 14
5 30 7 35 4 6 -4 -8 -12 -30 -18z m1894 -38 c-6 -26 -13 -45 -16 -43 -2 3 1
26 8 51 6 26 13 45 16 43 2 -3 -1 -26 -8 -51z m-3942 6 c2 -23 1 -24 -7 -7
-11 24 -13 51 -3 41 4 -4 8 -19 10 -34z m1650 32 c-3 -3 -12 -4 -19 -1 -8 3
-5 6 6 6 11 1 17 -2 13 -5z m1490 -31 c-3 -10 -5 -4 -5 12 0 17 2 24 5 18 2
-7 2 -21 0 -30z m-2360 5 c-3 -8 -6 -5 -6 6 -1 11 2 17 5 13 3 -3 4 -12 1 -19z
m920 16 c-3 -3 -12 -4 -19 -1 -8 3 -5 6 6 6 11 1 17 -2 13 -5z m196 -11 c-29
-2 -78 -2 -110 0 -32 2 -8 3 52 3 61 0 87 -1 58 -3z m-1307 -92 c23 -18 39
-22 75 -19 26 2 45 0 42 -4 -8 -14 -97 -8 -117 7 -25 19 -56 66 -56 85 1 8 7
1 14 -16 8 -17 26 -41 42 -53z m176 37 c-8 -8 -9 -4 -5 13 4 13 8 18 11 10 2
-7 -1 -18 -6 -23z m2900 -3 c-8 -16 -9 -16 -15 -1 -4 10 -3 15 3 11 6 -3 10
-1 10 6 0 7 3 10 6 6 3 -3 2 -13 -4 -22z m-3617 -77 c12 -27 19 -48 15 -48 -8
0 -61 123 -59 138 0 4 5 -4 11 -18 6 -14 21 -46 33 -72z m1390 -18 c33 -15 96
-36 138 -45 42 -10 77 -22 77 -26 0 -17 -226 57 -280 91 -8 5 -28 16 -45 25
-16 8 -43 26 -60 40 -18 15 -1 8 39 -16 39 -23 97 -54 131 -69z m-695 59 c-7
-11 -14 -18 -17 -15 -3 3 0 12 7 21 18 21 23 19 10 -6z m3165 -40 c-8 -30 -20
-61 -26 -69 -10 -13 -10 -13 -6 0 31 99 41 129 44 126 2 -2 -3 -28 -12 -57z
m-276 -8 c-12 -29 -23 -50 -25 -48 -2 2 6 27 18 55 12 28 23 50 26 48 2 -2 -7
-27 -19 -55z m-1284 29 c-11 -3 -38 -15 -60 -26 -22 -12 -51 -24 -65 -28 -14
-4 9 11 50 32 41 22 79 37 85 34 5 -3 1 -9 -10 -12z m-155 -72 c0 -6 -3 -8 -7
-5 -3 4 -12 2 -20 -4 -7 -6 -13 -9 -13 -5 0 3 -16 -1 -36 -9 -41 -17 -54 -19
-54 -7 0 4 26 15 58 24 74 20 72 20 72 6z m-2371 -83 c1 -5 -10 8 -23 30 -13
22 -22 44 -18 49 5 9 40 -56 41 -79z m3774 50 c-3 -9 -8 -14 -10 -11 -3 3 -2
9 2 15 9 16 15 13 8 -4z m-3505 -20 c-3 -3 -9 2 -12 12 -6 14 -5 15 5 6 7 -7
10 -15 7 -18z m1962 14 c0 -6 -8 -8 -17 -5 -32 10 -77 -9 -84 -35 -6 -22 -7
-21 -8 8 -1 29 2 32 32 36 62 8 77 7 77 -4z m-325 -384 l0 -380 -5 375 -5 374
-25 8 c-23 6 -23 7 5 5 l30 -2 0 -380z m2136 358 c-12 -20 -14 -14 -5 12 4 9
9 14 11 11 3 -2 0 -13 -6 -23z m-286 7 c3 -5 1 -10 -4 -10 -6 0 -11 5 -11 10
0 6 2 10 4 10 3 0 8 -4 11 -10z m-2571 -9 c3 -4 -6 -6 -19 -3 -43 8 -69 -5
-195 -98 -68 -49 -125 -88 -128 -85 -2 2 3 11 12 20 9 9 16 14 16 11 0 -4 18
6 40 20 22 15 37 31 33 37 -3 5 -1 7 4 4 9 -6 56 22 73 43 3 4 25 18 50 33 44
26 103 36 114 18z m1747 -8 c12 -14 12 -16 -1 -8 -8 5 -30 12 -50 16 l-35 7
36 1 c23 1 42 -5 50 -16z m-2641 -6 c0 -7 16 -36 36 -66 43 -63 40 -83 -16
-126 -21 -16 -37 -36 -35 -43 3 -7 1 -10 -5 -7 -5 3 -27 -10 -48 -30 -47 -42
-55 -43 -80 -10 -11 13 -23 21 -27 17 -5 -4 -5 -2 -1 5 4 7 -4 29 -17 50 -30
47 -87 159 -87 170 0 4 23 -34 50 -85 67 -124 98 -172 111 -172 15 0 173 149
177 166 2 7 -10 33 -26 56 -42 62 -55 88 -42 88 5 0 10 -6 10 -13z m2537 2
c-24 -14 -47 -62 -47 -100 0 -32 29 -67 110 -133 19 -15 24 -21 10 -12 -97 62
-130 102 -130 156 0 35 41 100 63 100 7 0 4 -5 -6 -11z m-1587 -55 c25 -73 5
-100 -173 -230 -143 -104 -152 -111 -144 -98 3 6 62 51 129 99 68 48 135 99
150 113 38 35 45 82 20 132 -11 24 -14 36 -6 30 7 -7 18 -27 24 -46z m2487 14
c-14 -23 -31 -44 -38 -47 -8 -2 -7 3 4 13 10 10 24 31 32 47 9 16 18 29 21 29
3 0 -5 -19 -19 -42z m-730 5 c0 -9 -4 -10 -14 -2 -7 6 -13 12 -13 14 0 1 6 2
13 2 8 0 14 -6 14 -14z m1004 -44 c-10 -24 -26 -53 -35 -64 -9 -11 -2 10 16
47 35 74 50 87 19 17z m-1874 -211 c-1 -46 -3 -9 -3 82 0 91 2 128 3 83 2 -46
2 -120 0 -165z m1063 111 c0 -5 -37 18 -82 52 -116 85 -120 93 -10 20 50 -35
92 -67 92 -72z m493 63 c-6 -15 153 -182 174 -182 7 0 19 14 28 30 21 40 28
38 10 -2 -21 -52 -42 -46 -132 39 -80 76 -116 130 -88 130 7 0 11 -7 8 -15z
m-3094 -62 c-37 -5 -80 -15 -98 -24 -17 -9 -31 -14 -31 -11 0 17 90 44 140 43
l55 -1 -66 -7z m96 -8 c-3 -3 -11 0 -18 7 -9 10 -8 11 6 5 10 -3 15 -9 12 -12z
m2826 3 c16 -9 35 -13 41 -9 6 4 9 3 6 -2 -3 -5 14 -25 38 -44 23 -19 45 -42
49 -50 3 -8 -13 4 -37 27 -88 86 -201 107 -307 58 -50 -24 -56 -24 -77 -10
-13 9 -24 21 -24 28 0 6 5 4 11 -5 13 -23 47 -23 100 2 54 24 157 27 200 5z
m435 -2 c-2 -9 -8 -19 -15 -21 -10 -3 -10 0 -2 17 14 25 20 27 17 4z m-3181
-22 c19 -4 25 -10 18 -14 -7 -4 -29 2 -50 13 -21 12 -29 18 -18 14 11 -3 33
-9 50 -13z m-346 -48 c-18 -21 -38 -42 -43 -48 -5 -5 -4 0 2 11 6 12 10 23 9
25 -1 2 0 3 2 2 2 -1 15 9 29 23 40 36 41 29 1 -13z m2532 -20 c13 -16 12 -17
-3 -4 -17 13 -22 21 -14 21 2 0 10 -8 17 -17z m724 -64 c9 -17 15 -37 13 -45
-2 -8 -10 5 -19 30 -19 53 -16 59 6 15z m-650 11 c3 -6 -1 -7 -9 -4 -18 7 -21
14 -7 14 6 0 13 -4 16 -10z m-2670 -20 c-4 -6 -10 -41 -15 -78 l-7 -67 -2 52
c-1 49 12 103 24 103 4 0 3 -5 0 -10z m2753 -39 c38 -30 42 -36 40 -74 l-1
-42 -6 44 c-5 39 -12 48 -53 75 -26 17 -47 35 -47 40 -1 5 5 4 12 -1 6 -5 31
-24 55 -42z m-2441 5 c37 -32 39 -99 4 -127 -54 -44 -123 -31 -147 27 -37 88
70 163 143 100z m2796 12 c45 -23 60 -74 37 -119 -13 -23 -61 -49 -90 -49 -33
0 -80 53 -80 90 0 64 76 109 133 78z m-2565 -38 c-7 -10 -14 -17 -17 -15 -4 4
18 35 25 35 2 0 -1 -9 -8 -20z m2799 -57 c-3 -10 -5 -2 -5 17 0 19 2 27 5 18
2 -10 2 -26 0 -35z m-2841 -100 c-14 -26 -31 -55 -38 -64 -16 -20 -108 -79
-122 -79 -6 0 12 14 41 30 69 39 131 124 134 182 2 22 2 22 6 1 2 -12 -7 -43
-21 -70z m2831 45 c-3 -8 -6 -5 -6 6 -1 11 2 17 5 13 3 -3 4 -12 1 -19z
m-3328 -33 c0 -5 -4 -3 -9 5 -5 8 -9 22 -9 30 0 16 17 -16 18 -35z m2864 -72
c55 -60 118 -88 201 -87 39 0 61 -3 50 -7 -64 -25 -178 9 -239 71 -21 21 -43
36 -49 33 -6 -3 -8 -3 -4 2 4 4 -2 25 -12 46 -11 21 -20 44 -20 51 0 7 9 -6
19 -28 11 -23 35 -59 54 -81z m-1040 -316 l52 -49 -49 41 c-27 23 -53 41 -57
41 -5 0 -8 87 -7 193 l3 192 2 -184 3 -185 53 -49z m1497 395 c0 -5 -7 -17
-15 -28 -14 -18 -14 -17 -4 9 12 27 19 34 19 19z m-3277 -74 c32 -43 109 -84
187 -97 l55 -10 -51 4 c-82 6 -153 41 -196 96 -21 26 -38 51 -38 55 0 9 7 2
43 -48z m3211 -22 c-22 -24 -47 -45 -56 -45 -9 -1 -23 -8 -32 -16 -8 -8 -17
-11 -20 -6 -3 4 12 16 33 26 22 9 54 32 72 51 47 48 49 42 3 -10z m-2937 -72
c-3 -3 -12 -4 -19 -1 -8 3 -5 6 6 6 11 1 17 -2 13 -5z m411 -132 c28 -19 52
-37 52 -39 0 -5 -12 2 -82 49 -31 21 -64 38 -73 38 -9 0 -13 5 -10 11 7 10 8
10 113 -59z m1941 54 c-30 -30 -266 -162 -275 -154 -2 3 9 11 26 18 16 7 30
17 30 22 0 5 5 6 10 3 6 -3 10 -1 10 6 0 7 3 9 7 6 5 -6 110 47 123 63 10 11
55 39 64 39 5 1 7 -1 5 -3z m121 -94 c0 -8 -57 38 -85 69 -19 21 -9 15 28 -16
31 -27 57 -51 57 -53z m-2221 39 c-42 -39 -119 -88 -119 -77 0 3 13 12 29 20
15 8 48 33 72 55 24 22 48 41 53 41 5 0 -10 -18 -35 -39z m290 -71 c32 -16 61
-26 65 -23 3 4 6 1 6 -5 0 -7 -3 -12 -7 -12 -12 1 -139 69 -130 70 4 0 34 -13
66 -30z m680 17 c-57 -39 -86 -68 -110 -105 -16 -25 -29 -39 -29 -31 0 8 7 24
15 35 8 12 11 25 7 29 -4 5 -2 5 4 2 7 -4 25 8 42 27 17 19 32 33 35 30 2 -2
10 2 17 11 7 9 15 13 18 10 3 -3 3 -6 1 -8z m1346 -39 c5 -5 3 -14 -8 -23 -9
-8 -12 -10 -7 -3 15 19 12 25 -20 38 -16 7 -35 19 -42 28 -12 15 53 -19 77
-40z m-2451 -2 c-3 -8 9 -25 28 -40 28 -23 29 -25 7 -16 -28 13 -53 46 -44 60
9 15 15 12 9 -4z m1898 -32 c-28 -13 -64 -26 -80 -29 -31 -6 -22 -1 63 34 69
28 82 25 17 -5z m-1332 -6 c10 -6 7 -7 -10 -2 -14 3 -32 11 -40 16 -10 6 -7 7
10 2 14 -3 32 -11 40 -16z m76 -26 c-6 -6 -56 10 -56 18 0 5 13 3 30 -3 16 -6
28 -13 26 -15z m1770 10 c-3 -5 -16 -12 -28 -15 -22 -6 -22 -6 2 13 25 19 37
20 26 2z m-946 -46 c0 -12 -5 -7 -19 24 -11 24 -11 24 3 6 9 -11 16 -24 16
-30z m-773 14 c3 -10 2 -11 -4 -4 -4 6 -15 14 -23 17 -11 5 -9 6 4 4 11 -1 21
-9 23 -17z m1090 14 c-3 -3 -12 -4 -19 -1 -8 3 -5 6 6 6 11 1 17 -2 13 -5z
m567 -25 c-31 -12 -39 -10 -19 5 11 8 24 12 29 8 5 -3 1 -9 -10 -13z m-2169
-42 c6 -5 -9 0 -32 12 -23 11 -45 26 -49 33 -7 12 61 -26 81 -45z m1541 -33
c-20 -42 -39 -75 -42 -72 -2 3 5 22 16 42 12 19 23 41 24 48 5 22 29 68 34 63
2 -2 -12 -39 -32 -81z m-980 -41 c-4 -4 -46 92 -45 104 0 4 11 -16 25 -46 13
-30 23 -56 20 -58z m221 75 c-3 -8 -6 -5 -6 6 -1 11 2 17 5 13 3 -3 4 -12 1
-19z m317 -9 c34 -40 33 -74 -3 -110 -47 -47 -111 -36 -136 24 -37 89 77 160
139 86z m205 -53 c1 -68 -5 -55 -12 24 -3 38 -1 57 3 45 5 -11 9 -42 9 -69z
m771 54 c-14 -11 -30 -20 -37 -20 -6 0 -13 -5 -15 -11 -2 -7 -11 -10 -18 -7
-10 3 4 15 35 31 60 31 68 33 35 7z m-1875 -98 c-2 -2 -35 12 -73 31 -39 20
-71 34 -73 33 -2 -2 -13 5 -24 16 -12 12 19 1 77 -28 54 -26 95 -50 93 -52z
m572 21 c-2 -16 -4 -5 -4 22 0 28 2 40 4 28 2 -13 2 -35 0 -50z m1204 23 c-6
-7 -32 -21 -57 -31 -28 -10 -41 -20 -34 -25 6 -4 -2 -7 -19 -8 -16 0 -38 -5
-48 -10 -34 -18 -174 -64 -179 -60 -2 3 26 15 63 28 38 12 115 44 173 71 121
55 116 53 101 35z m-1391 -46 c6 -11 8 -20 6 -20 -3 0 -10 9 -16 20 -6 11 -8
20 -6 20 3 0 10 -9 16 -20z m-316 -19 c26 -11 36 -20 28 -25 -7 -4 -12 -3 -12
3 0 6 -16 13 -35 17 -19 3 -35 10 -35 15 0 12 8 11 54 -10z m556 -91 c11 -15
41 -42 67 -59 25 -17 41 -31 34 -31 -41 0 -152 129 -150 174 0 14 5 8 14 -17
8 -21 23 -51 35 -67z m456 41 c-9 -16 -21 -33 -26 -36 -6 -4 -2 8 10 27 11 18
20 42 21 53 1 16 2 17 6 3 2 -9 -3 -30 -11 -47z m208 47 c-4 -7 -23 -32 -42
-55 -44 -55 -31 -61 83 -34 100 24 95 24 95 13 0 -5 -6 -9 -12 -10 -29 -2 -85
-14 -112 -22 -45 -15 -86 -12 -93 7 -4 9 -1 19 5 21 7 2 12 8 12 13 0 5 15 25
33 44 35 36 42 42 31 23z m-877 -5 c-4 -3 -1 -13 6 -22 11 -14 10 -14 -5 -2
-16 12 -16 31 -1 31 4 0 3 -3 0 -7z m-198 -46 c35 -11 59 -23 52 -25 -6 -2
-37 6 -68 19 -30 12 -62 22 -69 22 -8 0 -14 5 -14 10 0 5 8 6 18 2 9 -3 46
-16 81 -28z m247 -29 c10 -32 -9 -43 -58 -30 l-43 11 48 -6 c52 -6 61 5 30 39
-15 17 -15 18 0 13 9 -4 19 -16 23 -27z m-121 -8 l20 -9 -20 0 c-11 0 -29 4
-40 9 l-20 9 20 0 c11 0 29 -4 40 -9z m673 -45 c-21 -20 -56 -42 -79 -50 -44
-16 -141 -19 -174 -6 -11 5 15 6 57 3 69 -4 83 -2 131 22 30 14 62 35 72 46
10 11 21 20 24 20 3 0 -11 -16 -31 -35z"/>
<path d="M2820 3657 c-78 -37 -153 -100 -181 -151 -20 -38 -17 -54 16 -78 18
-14 20 -13 133 89 13 12 40 27 60 34 71 22 85 55 44 102 -17 19 -36 21 -72 4z"/>
<path d="M3381 3414 c0 -11 3 -14 6 -6 3 7 2 16 -1 19 -3 4 -6 -2 -5 -13z"/>
<path d="M3392 3335 c-4 -76 -14 -116 -28 -111 -8 3 -20 -7 -30 -27 -21 -40
-63 -80 -78 -74 -7 3 -18 -4 -25 -15 -11 -17 -15 -18 -22 -7 -7 11 -9 9 -9 -8
0 -12 -11 -30 -25 -41 -14 -11 -25 -28 -25 -37 0 -12 -6 -16 -20 -12 -11 3
-18 1 -14 -4 5 -9 -15 -14 -50 -11 -12 2 -16 -3 -13 -13 9 -21 -9 -28 -33 -13
-18 11 -23 10 -33 -3 -7 -9 -25 -19 -42 -24 -16 -4 -24 -10 -17 -12 19 -7 14
-23 -7 -23 -11 0 -22 -6 -24 -12 -4 -10 -6 -10 -6 -1 -1 9 -8 10 -27 3 -14 -6
-30 -7 -36 -4 -5 3 -16 -2 -24 -12 -9 -11 -13 -13 -9 -6 3 6 0 12 -7 13 -57 2
-84 10 -95 25 -7 10 -13 13 -13 7 0 -16 21 -30 55 -39 17 -4 35 -10 41 -15 5
-4 43 -14 83 -20 200 -33 420 87 500 274 26 60 44 160 38 217 l-4 45 -1 -40z
m-277 -445 c-3 -5 -12 -10 -18 -10 -7 0 -6 4 3 10 19 12 23 12 15 0z"/>
<path d="M5120 6009 c0 -5 5 -7 10 -4 6 3 10 8 10 11 0 2 -4 4 -10 4 -5 0 -10
-5 -10 -11z"/>
<path d="M5280 5934 c0 -8 5 -12 10 -9 6 4 8 11 5 16 -9 14 -15 11 -15 -7z"/>
<path d="M5360 5854 c0 -8 5 -12 10 -9 6 4 8 11 5 16 -9 14 -15 11 -15 -7z"/>
</g>
</svg>
